#!OML:ASF X:\für Bonn\!DataBase\2005_08_10_Bjorn_Final\c3d\bjorn.ASF
:FULLY-SPECIFIED
:DEGREES
32
root 0.86832 19.1736 2.47882 -174.21 -22.9895 -180.375
lowerback -4.51679 2.54612 -4.13529
upperback 6.96082 3.6983 -4.24482
thorax 9.96985 1.4746 -1.77848
lowerneck -3.90803 -10.658 -4.82112
upperneck 20.4059 -19.8867 15.7808
head 9.17928 -9.17924 3.96851
rclavicle 5.88403e-014 2.22639e-014
rhumerus -41.9019 -16.7736 -80.2641
rradius 23.8757
rwrist 20.4529
rhand -3.82595 9.10629
rfingers 7.12502
rthumb 21.9211 -19.6718
lclavicle 5.88403e-014 2.22639e-014
lhumerus -14.4811 -29.8628 69.6077
lradius 68.299
lwrist 16.9111
lhand -28.5229 -16.1403
lfingers 7.12502
lthumb -1.89094 13.8311
rfemur -12.5623 -10.0224 16.8568
rtibia 31.2656
rfoot -23.8908 -2.55758
rtoes -30.0785
lfemur -17.3752 7.00453 -20.9528
ltibia 32.766
lfoot -14.4562 -12.6171
ltoes -0.620939
33
root 0.841265 19.1619 2.49959 -174.388 -23.1095 -180.575
lowerback -4.40982 2.46698 -4.21343
upperback 7.06163 3.58427 -4.19154
thorax 10.0086 1.40656 -1.69724
lowerneck -3.94693 -10.6683 -4.6767
upperneck 20.4745 -19.958 15.7633
head 9.20366 -9.20443 3.92751
rclavicle -1.82882e-014 -1.59028e-015
rhumerus -41.913 -16.4016 -80.1116
rradius 24.4111
rwrist 20.0781
rhand -3.87596 9.16919
rfingers 7.12502
rthumb 21.8731 -19.6145
lclavicle -1.82882e-014 -1.59028e-015
lhumerus -14.799 -30.3471 69.8628
lradius 69.3395
lwrist 17.9147
lhand -28.9193 -16.1486
lfingers 7.12502
lthumb -2.27378 13.8191
rfemur -12.5706 -8.81111 16.5731
rtibia 31.8441
rfoot -23.8606 -3.85193
rtoes -30.4131
lfemur -17.1437 6.8158 -21.2267
ltibia 32.8435
lfoot -14.4968 -12.6052
ltoes -0.560781
34
root 0.816848 19.1507 2.51807 -174.663 -23.296 -180.699
lowerback -4.2885 2.38397 -4.24307
upperback 7.20766 3.45833 -4.14314
thorax 10.093 1.33394 -1.65068
lowerneck -4.09474 -10.6735 -4.48334
upperneck 20.5988 -20.0474 15.7587
head 9.26726 -9.22543 3.87264
rclavicle -3.37934e-014 -4.45278e-014
rhumerus -41.8491 -16.326 -79.8965
rradius 24.8147
rwrist 19.9528
rhand -3.94967 9.26114
rfingers 7.12502
rthumb 21.8023 -19.5308
lclavicle -3.37934e-014 -4.45278e-014
lhumerus -14.9724 -30.7299 70.046
lradius 70.4513
lwrist 18.7661
lhand -29.2904 -16.3259
lfingers 7.12502
lthumb -2.63213 13.6376
rfemur -12.6172 -7.62301 16.3752
rtibia 32.635
rfoot -23.76 -5.16526
rtoes -30.9441
lfemur -16.8385 6.71618 -21.3968
ltibia 32.9027
lfoot -14.5061 -12.747
ltoes -0.490623
35
root 0.795397 19.1397 2.53629 -175.023 -23.523 -180.784
lowerback -4.13397 2.28117 -4.31556
upperback 7.36978 3.30402 -4.04615
thorax 10.1701 1.24206 -1.53263
lowerneck -4.15578 -10.6612 -4.38881
upperneck 20.6945 -20.0953 15.7666
head 9.3104 -9.23871 3.84894
rclavicle -4.37326e-015 -8.42847e-014
rhumerus -41.7975 -16.3279 -79.6025
rradius 25.1652
rwrist 19.9994
rhand -4.07102 9.37171
rfingers 7.12502
rthumb 21.6858 -19.4337
lclavicle -4.37326e-015 -8.42847e-014
lhumerus -15.1456 -30.9007 70.327
lradius 71.6893
lwrist 19.4317
lhand -29.5412 -16.6951
lfingers 7.12502
lthumb -2.87437 13.2653
rfemur -12.7286 -6.48657 16.2228
rtibia 33.6907
rfoot -23.636 -6.40534
rtoes -31.6868
lfemur -16.43 6.61795 -21.5079
ltibia 32.9026
lfoot -14.4885 -12.9296
ltoes -0.39214
36
root 0.776628 19.1306 2.55309 -175.436 -23.8215 -180.848
lowerback -3.97945 2.15852 -4.42869
upperback 7.5735 3.1235 -3.94192
thorax 10.2927 1.13076 -1.38809
lowerneck -4.27674 -10.6413 -4.20237
upperneck 20.7996 -20.1318 15.7357
head 9.35313 -9.23876 3.79595
rclavicle 1.19271e-015 -5.88403e-014
rhumerus -41.7 -16.2992 -79.3849
rradius 25.4805
rwrist 20.0888
rhand -4.28812 9.47543
rfingers 7.12502
rthumb 21.4773 -19.354
lclavicle 1.19271e-015 -5.88403e-014
lhumerus -15.1434 -30.8855 70.5789
lradius 72.9853
lwrist 19.8148
lhand -29.6437 -17.0651
lfingers 7.12502
lthumb -2.9734 12.8939
rfemur -12.939 -5.43691 16.1065
rtibia 35.024
rfoot -23.4442 -7.58324
rtoes -32.9541
lfemur -15.9302 6.39596 -21.582
ltibia 32.8265
lfoot -14.4404 -13.0236
ltoes -0.466724
